<svg width="500" height="500" xmlns="http://www.w3.org/2000/svg">
 <g>
  <title>Layer 1</title>
  <style transform="matrix(1.7777778837415923,0,0,1.7777778837415923,0,0) " type="text/css">.st0{fill:#231F20;}
	.st1{fill-rule:evenodd;clip-rule:evenodd;fill:#231F20;}
	.st2{fill-rule:evenodd;clip-rule:evenodd;}</style>
  <g transform="matrix(1.7777778837415923,0,0,1.7777778837415923,0,0) " id="svg_8"/>
  <g transform="matrix(7.7362541464438905,0,0,7.7362541464438905,-5.948428866937114,-12.456740262121842) " id="svg_6">
   <g id="svg_7">
    <path id="svg_10" d="m33.08428,5.925557c-15.5,0 -28,12.5 -28,28s12.5,28 28,28c15.5,0 28,-12.5 28,-28s-12.5,-28 -28,-28zm0,51.4c-12.9,0 -23.4,-10.5 -23.4,-23.4s10.5,-23.4 23.4,-23.4c12.9,0 23.4,10.5 23.4,23.4s-10.5,23.4 -23.4,23.4z" class="st0"/>
    <path id="svg_11" d="m50.38428,28.425557c0,0 0,0 0,0c0,-0.1 0,-0.1 0,-0.2c0,0 0,0 0,-0.1c0,0 0,-0.1 0,-0.1c0,0 0,0 0,-0.1c0,0 0,-0.1 -0.1,-0.1c0,0 0,0 0,-0.1c0,0 0,-0.1 -0.1,-0.1c0,0 0,0 -0.1,-0.1c0,0 0,-0.1 -0.1,-0.1c0,0 0,0 -0.1,-0.1c0,0 -0.1,0 -0.1,-0.1c0,0 0,0 -0.1,-0.1c0,0 0,0 0,0l-15.7,-10.3c-0.5,-0.3 -1.2,-0.3 -1.7,0l-15.8,10.6c0,0 0,0 0,0c0,0 0,0 -0.1,0.1c0,0 -0.1,0 -0.1,0.1c0,0 0,0 -0.1,0.1c0,0 -0.1,0.1 -0.1,0.1c0,0 0,0 -0.1,0.1c0,0 0,0.1 -0.1,0.1c0,0 0,0 0,0.1c0,0 0,0.1 -0.1,0.1c0,0 0,0 0,0.1c0,0 0,0.1 0,0.1c0,0 0,0 0,0.1c0,0 0,0.1 0,0.1c0,0 0,0 0,0.1c0,0.1 0,0.1 0,0.2l0,10.5c0,0.1 0,0.1 0,0.2c0,0 0,0 0,0.1c0,0 0,0.1 0,0.1c0,0 0,0 0,0.1c0,0 0,0.1 0,0.1c0,0 0,0 0,0.1c0,0 0,0.1 0.1,0.1c0,0 0,0 0,0.1c0,0 0,0.1 0.1,0.1c0,0 0,0 0.1,0.1c0,0 0,0.1 0.1,0.1c0,0 0,0 0.1,0.1c0,0 0.1,0 0.1,0.1c0,0 0,0 0.1,0.1c0,0 0,0 0,0l15.8,10.1c0.2,0.2 0.5,0.3 0.8,0.3c0.3,0 0.6,-0.1 0.8,-0.3l15.8,-10.6c0,0 0,0 0,0c0,0 0,0 0.1,-0.1c0,0 0.1,0 0.1,-0.1c0,0 0,0 0.1,-0.1c0,0 0.1,-0.1 0.1,-0.1c0,0 0,0 0.1,-0.1c0,0 0,-0.1 0.1,-0.1c0,0 0,0 0,-0.1c0,0 0,-0.1 0.1,-0.1c0,0 0,0 0,-0.1c0,0 0,-0.1 0,-0.1c0,0 0,0 0,-0.1c0,0 0,-0.1 0,-0.1c0,0 0,0 0,-0.1c0,-0.1 0,-0.1 0,-0.2l0,-10.3c0.1,0 0.1,-0.1 0,-0.2zm-15.8,-7.5l11.7,7.7l-5.2,3.5l-6.5,-4.3l0,-6.9zm-2.9,0l0,6.9l-6.5,4.3l-5.2,-3.5l11.7,-7.7zm-12.9,10.5l3.7,2.5l-3.7,2.5l0,-5zm12.9,15.5l-11.7,-7.8l5.2,-3.5l6.5,4.3l0,7zm1.4,-9.5l-5.3,-3.5l5.3,-3.5l5.3,3.5l-5.3,3.5zm1.5,9.5l0,-6.9l6.5,-4.3l5.2,3.5l-11.7,7.7zm12.9,-10.5l-3.7,-2.5l3.7,-2.5l0,5z" class="st0"/>
   </g>
  </g>
  <g id="svg_12"/>
 </g>
</svg>
