<svg width="500" height="500" xmlns="http://www.w3.org/2000/svg">
 <g>
  <title>Layer 1</title>
  <path stroke="null" id="svg_4" d="m430.615422,232.960682c-3.834841,-2.126321 -4.594994,-4.663141 -5.17667,-8.742172c-1.908091,-13.376107 -2.87106,-27.273855 -7.380061,-39.828964c-29.12029,-81.091429 -124.926411,-116.323776 -200.259494,-74.349022c-22.204272,12.371763 -39.728367,29.504829 -53.132057,51.842148c-2.583062,-1.223385 -4.427874,-2.198523 -6.347323,-2.990316c-24.420643,-10.076699 -47.904277,-8.210794 -69.225895,7.436849c-20.712359,15.200637 -29.547826,36.14015 -26.508834,61.986994c0.287998,2.454071 -1.595755,6.182636 -3.662042,7.743507c-32.216882,24.331404 -45.455885,63.331257 -33.993548,101.095556c11.22058,36.96845 46.658988,64.735553 85.675877,66.063591c24.573972,0.836412 49.192563,0.44295 73.791684,0.437271c68.179365,-0.017037 136.365221,0.430781 204.535662,-0.389406c42.724362,-0.514341 77.968878,-29.913706 87.788407,-70.817593c9.361977,-39.000664 -9.040716,-78.935903 -46.105707,-99.488444zm17.123331,127.270961c-14.789327,18.198255 -34.351315,28.599459 -57.826836,28.921531c-46.13978,0.633597 -92.294973,0.186591 -138.443677,0.186591c0,0.567884 -132.258607,0.128991 -132.826491,0.124935c-35.582813,-0.269339 -62.255522,-16.035427 -77.211969,-48.671732c-15.334496,-33.460548 -3.248298,-73.701634 27.733842,-94.192518c7.449018,-4.926801 10.144846,-9.383069 8.190513,-18.769384c-4.453835,-21.385708 3.612555,-38.904935 21.433572,-51.094164c18.648506,-12.75549 38.471721,-13.098655 58.438529,-2.501124c8.330861,4.421384 11.850121,9.381447 18.008419,-2.050062c11.537784,-21.416536 28.03482,-37.907893 49.220146,-49.725563c79.065705,-44.105132 185.268163,6.139639 186.785225,107.652185c0.098974,6.611795 1.956767,10.082378 7.989319,12.894216c46.696306,21.765379 60.403408,77.980235 28.509409,117.22509zm-71.21998,-65.305871c-4.744267,25.276526 -28.087552,44.697354 -54.083668,44.696543c-13.753344,-0.000811 -26.007474,-5.309717 -35.759668,-14.363414c-22.469555,-20.860009 -57.714071,-60.82851 -77.830152,-75.761431c-16.270693,-12.078086 -34.064939,-10.005308 -48.896452,3.068197c-40.559912,35.753178 12.865822,98.791569 54.40574,62.619779c3.689625,-3.212602 6.360303,-7.741884 10.338737,-10.419864c6.639378,-4.469249 16.84669,-0.717157 10.682713,8.617237c-14.081906,21.32324 -40.019611,30.987818 -63.978645,23.770821c-23.443071,-7.061234 -39.622092,-29.179513 -39.448481,-56.933636c0.993797,-18.241252 10.030457,-34.932991 28.730073,-45.402342c18.314265,-10.252744 37.61746,-10.664865 54.347329,2.007065c41.204866,31.213349 61.313645,66.316705 87.04529,82.136336c19.923,12.249262 44.01427,5.97333 55.833563,-14.201972c23.388716,-39.921448 -28.063214,-85.19561 -63.982701,-51.482759c-3.236129,3.037369 -5.611507,7.246202 -9.256512,9.508004c-8.903613,5.525513 -14.061624,-3.336725 -10.39147,-8.399007c16.795581,-23.164808 40.939583,-32.807481 67.554693,-22.888978c25.497189,9.503136 39.83951,35.9925 34.689612,63.42942z" fill="#2795ee"/>
  <g id="svg_5"/>
 </g>
</svg>
