<svg width="100" height="100" viewBox="0 0 100 100" preserveAspectRatio="xMinYMin meet" xmlns="http://www.w3.org/2000/svg" xmlns:xlink="http://www.w3.org/1999/xlink">
  <defs/>
  <g>
    <path stroke="none" fill="#19ade7" d="M100 100 L0 100 0 0 100 0 100 100"/>
    <path stroke="none" fill="#ffffff" d="M78.55 44.6 Q78.55 41.2 76.15 38.8 73.7 36.35 70.3 36.35 L67.65 36.35 67.65 52.9 70.3 52.9 Q73.7 52.9 76.15 50.5 78.55 48.1 78.55 44.65 L78.55 44.6 M82.3 32.8 Q87.15 37.7 87.15 44.6 87.15 51.55 82.3 56.4 77.4 61.3 70.5 61.3 L67.65 61.3 67.65 61.85 Q67.45 71.85 57.45 72.05 L28.05 72.05 Q18.05 71.85 17.85 61.85 L17.85 32.05 Q17.85 30.95 18.15 30.15 18.95 27.95 21.95 27.95 L70.5 27.95 Q77.4 27.95 82.3 32.8 M55 40.5 Q49.85 35.75 42.9 41.9 36.05 35.45 30.5 40.5 25.15 47.25 34.3 54.8 L40.45 60.95 40.8 61.3 Q42.85 63.05 44.95 61.3 L45.3 60.95 51.4 54.85 Q60.3 46.6 55 40.5"/>
    <path stroke="none" fill="#f05e5f" d="M55 40.5 Q60.3 46.6 51.4 54.85 L45.3 60.95 44.95 61.3 Q42.85 63.05 40.8 61.3 L40.45 60.95 34.3 54.8 Q25.15 47.25 30.5 40.5 36.05 35.45 42.9 41.9 49.85 35.75 55 40.5"/>
  </g>
</svg>